<svg xmlns="http://www.w3.org/2000/svg" width="44" height="56" viewBox="0 0 44 56">
  <g fill="#FFF" fill-rule="evenodd">
    <path fill-rule="nonzero" d="M11.53 6.73L2.07 6.73 2.07.09 11.53.09 11.53 6.73zM2.07 9.4L11.53 9.4 11.53 34.19 2.07 34.19 2.07 9.4zM42.71 34.19L33.59 34.19 33.59 31.47 33.5 31.47C32.3 33.04 30.87 34.81 26.24 34.81 19.24 34.81 15.82 27.89 15.82 21.68 15.82 15.85 18.07 8.78 26.38 8.78 29.05573 8.70308662 31.5954717 9.95797374 33.16 12.13L33.26 12.13 33.26.13 42.71.13 42.71 34.19zM29.44 15.66C26.04 15.66 25.28 18.86 25.28 21.77 25.28 24.68 26.04 27.93 29.44 27.93 32.84 27.93 33.59 24.73 33.59 21.77 33.59 18.81 32.83 15.66 29.44 15.66z"/>
    <path d="M10.94,46.13 C10.8353818,44.8627645 9.77151075,43.8904562 8.5,43.9 C6.31,43.9 5.61,46.02 5.61,48.06 C5.61,50.1 6.31,52.22 8.5,52.22 C10.07,52.22 10.68,51.12 10.96,49.69 L15.55,49.69 C15.55,52.75 13.06,56 8.62,56 C3.72,56 0.94,52.54 0.94,48.06 C0.94,43.28 3.94,40.12 8.62,40.12 C12.79,40.12 15.08,42.32 15.48,46.12 L10.94,46.13 Z"/>
    <path fill-rule="nonzero" d="M21.7,40.48 L26.27,40.48 L31.79,55.64 L27,55.64 L26.36,53.47 L21.49,53.47 L20.81,55.64 L16.12,55.64 L21.7,40.48 Z M25.38,50.22 L24,45.55 L22.53,50.22 L25.38,50.22 Z"/>
    <polygon points="34.93 44.36 30.68 44.36 30.68 40.48 43.85 40.48 43.85 44.36 39.6 44.36 39.6 55.64 34.93 55.64"/>
  </g>
</svg>
